# xmcd
#
# Track frame offsets:
#	150
#	16545
#	29428
#	48535
#	65227
#	83880
#	104607
#	125654
#	139381
#	156984
#	173321
#	189862
#	205727
#	227286
#
# Disc length: 3280 seconds
#
# Revision: 1
# Processed by: cddbd v1.5.2PL0 Copyright (c) Steve Scherf et al.
# Submitted via: audiograbber 1.83.01
#
DISCID=b60cce0e
DTITLE=JonesTM - HC200714
DYEAR=2007
DGENRE=Top 40
TTITLE0=Megan Mullins - Cryin' Days
TTITLE1=Ty England - The Perfect Girl
TTITLE2=DeLana Stevens - Good Enough For Me
TTITLE3=Trace Adkins - I Wanna Feel Something [The Single Mix]
TTITLE4=Tim McGraw with Faith Hill - I Need You [Album Version]
TTITLE5=Lloyd - Valentine [Main]
TTITLE6=Tramaine Hawkins Feat. Introduction By Kurt Carr - Excellent Lord [Albu
TTITLE6=m Version]
TTITLE7=Marcus H. Mitchell Feat. Jeff Lorber - Saturday Night [Short Version]
TTITLE8=Philippe Saisse Trio - Constant Rain (Chove Chuva) [Album Version]
TTITLE9=Bishop, Stephen - On and On (2007) [Album Version]
TTITLE10=Amy Winehouse - You Know I'm No Good
TTITLE11=Paul Taylor - Ladies' Choice [Radio Edit]
TTITLE12=Andrew Neu - Wine [Album Version]
TTITLE13=Super Groovers - Super Groover
EXTD=
EXTT0=
EXTT1=
EXTT2=
EXTT3=
EXTT4=
EXTT5=
EXTT6=
EXTT7=
EXTT8=
EXTT9=
EXTT10=
EXTT11=
EXTT12=
EXTT13=
PLAYORDER=
